HIERARCHY
ROOT Pelvis
{
	OFFSET -0.217368 -24.078917 2.858379
	CHANNELS 6 Xposition Yposition Zposition Zrotation Yrotation Xrotation 
	JOINT Left_hip
	{
		OFFSET 5.858135 -8.228005 -1.766408
		CHANNELS 3 Zrotation Yrotation Xrotation
		JOINT Left_knee
		{
			OFFSET 4.345143 -38.646942 0.803700
			CHANNELS 3 Zrotation Yrotation Xrotation
			JOINT Left_ankle
			{
				OFFSET -1.479033 -42.687447 -3.742800
				CHANNELS 3 Zrotation Yrotation Xrotation
				JOINT Left_foot
				{
					OFFSET 4.105436 -6.028605 12.204244
					CHANNELS 3 Zrotation Yrotation Xrotation
					End Site
					{
						OFFSET 0.000000 0.000000 0.000000
					}
				}
			}
		}
	}
	JOINT Right_hip
	{
		OFFSET -6.030973 -9.051328 -1.354253
		CHANNELS 3 Zrotation Yrotation Xrotation
		JOINT Right_knee
		{
			OFFSET -4.325663 -38.368790 -0.484304
			CHANNELS 3 Zrotation Yrotation Xrotation
			JOINT Right_ankle
			{
				OFFSET 1.905555 -42.004566 -3.456167
				CHANNELS 3 Zrotation Yrotation Xrotation
				JOINT Right_foot
				{
					OFFSET -3.483987 -6.210554 13.032330
					CHANNELS 3 Zrotation Yrotation Xrotation
					End Site
					{
						OFFSET 0.000000 0.000000 0.000000
					}
				}
			}
		}
	}
	JOINT Spine1
	{
		OFFSET 0.443945 12.440353 -3.838522
		CHANNELS 3 Zrotation Yrotation Xrotation
		JOINT Spine2
		{
			OFFSET 0.448844 13.795640 2.682033
			CHANNELS 3 Zrotation Yrotation Xrotation
			JOINT Spine3
			{
				OFFSET -0.226460 5.603239 0.285504
				CHANNELS 3 Zrotation Yrotation Xrotation
				JOINT Neck
				{
					OFFSET -1.339018 21.163553 -3.346758
					CHANNELS 3 Zrotation Yrotation Xrotation
					JOINT Head
					{
						OFFSET 1.011321 8.893734 5.040987
						CHANNELS 3 Zrotation Yrotation Xrotation
						End Site
						{
							OFFSET 0.000000 0.000000 0.000000
						}
					}
				}
				JOINT Left_collar
				{
					OFFSET 7.170247 11.399971 -1.889817
					CHANNELS 3 Zrotation Yrotation Xrotation
					JOINT Left_shoulder
					{
						OFFSET 12.292140 4.520507 -1.904600
						CHANNELS 3 Zrotation Yrotation Xrotation
						JOINT Left_elbow
						{
							OFFSET 25.533188 -1.564902 -2.294648
							CHANNELS 3 Zrotation Yrotation Xrotation
							JOINT Left_wrist
							{
								OFFSET 26.570929 1.269810 -0.737473
								CHANNELS 3 Zrotation Yrotation Xrotation
								JOINT Left_palm
								{
									OFFSET 8.669054 -1.063602 -1.559429
									CHANNELS 3 Zrotation Yrotation Xrotation
									End Site
									{
										OFFSET 0.000000 0.000000 0.000000
									}
								}
							}
						}
					}
				}
				JOINT Right_collar
				{
					OFFSET -8.295364 11.247234 -2.370738
					CHANNELS 3 Zrotation Yrotation Xrotation
					JOINT Right_shoulder
					{
						OFFSET -11.322830 4.685326 -0.847207
						CHANNELS 3 Zrotation Yrotation Xrotation
						JOINT Right_elbow
						{
							OFFSET -26.012751 -1.436928 -3.126872
							CHANNELS 3 Zrotation Yrotation Xrotation
							JOINT Right_wrist
							{
								OFFSET -26.910841 0.679372 -0.602677
								CHANNELS 3 Zrotation Yrotation Xrotation
								JOINT Right_palm
								{
									OFFSET -8.875370 -0.865157 -1.010708
									CHANNELS 3 Zrotation Yrotation Xrotation
									End Site
									{
										OFFSET 0.000000 0.000000 0.000000
									}
								}
							}
						}
					}
				}
			}
		}
	}
}
MOTION
Frames: 13
Frame Time: 0.016667
1.566941 118.646744 93.615540 -8.869871 2.559438 5.317791 9.047582 -0.100761 0.589915 -0.870522 0.196771 -3.835464 5.195227 12.374805 8.023055 0.000000 0.000000 0.000000 0.174262 6.133254 -56.203296 16.858977 -10.129230 63.798503 -9.655567 -23.619535 -2.365293 0.000000 0.000000 0.000000 3.822080 -2.367681 30.689669 11.612905 -1.940057 -26.034130 -4.147110 -9.933318 26.754173 -9.957148 7.153273 -11.755127 0.000000 0.000000 0.000000 -31.978498 -4.727566 -0.300622 -38.432876 -17.355373 1.001532 -2.030410 -40.090168 2.246209 0.000000 0.000000 0.000000 0.000000 0.000000 0.000000 24.504988 9.113290 2.966155 40.062400 10.691581 -0.174895 -7.543729 44.066506 -1.484900 0.000000 0.000000 0.000000 0.000000 0.000000 0.000000 
0.455040 121.204926 95.575241 -8.088179 2.347527 6.504163 6.736265 -0.044753 1.102273 1.505496 0.062784 -4.824028 4.875738 12.668310 13.118272 0.000000 0.000000 0.000000 2.502266 6.875549 -53.263708 14.470652 -7.942678 61.475406 -9.573019 -24.097245 -9.157799 0.000000 0.000000 0.000000 3.830526 -2.247522 29.154560 12.542596 -2.150169 -26.044786 -3.726272 -8.794110 27.453665 -9.641046 6.827920 -14.411188 0.000000 0.000000 0.000000 -32.701583 -5.120133 -0.075384 -39.893703 -16.783128 0.893866 -1.344840 -38.974674 1.937888 0.000000 0.000000 0.000000 0.000000 0.000000 0.000000 25.700744 9.643171 3.289834 40.126833 10.620559 -0.196373 -12.672290 44.968959 -3.557421 0.000000 0.000000 0.000000 0.000000 0.000000 0.000000 
-0.810572 124.657516 97.623169 -7.536128 3.854201 7.406750 7.812145 -0.075381 0.777737 0.078094 0.133225 -4.081729 3.873693 12.342890 20.460317 0.000000 0.000000 0.000000 2.972907 6.468339 -49.088774 13.953299 -6.771012 55.126097 -9.261430 -23.299970 -10.337876 0.000000 0.000000 0.000000 4.994252 -2.476737 28.209123 12.789773 -2.041342 -27.208019 -3.463565 -9.128069 27.867824 -11.641237 7.931161 -15.696223 0.000000 0.000000 0.000000 -33.943241 -4.049552 -0.923791 -40.430967 -14.750630 0.259417 -2.317018 -37.979612 2.215506 0.000000 0.000000 0.000000 0.000000 0.000000 0.000000 26.735882 8.599929 2.621952 39.835848 9.272526 -0.614903 -13.675709 46.111088 -4.078343 0.000000 0.000000 0.000000 0.000000 0.000000 0.000000 
-2.148837 128.783249 99.646301 -5.175823 4.298514 7.114312 7.327822 -0.120317 -1.206137 -3.548405 0.387709 0.571869 5.756114 15.345167 25.444226 0.000000 0.000000 0.000000 3.343554 5.556782 -41.899046 10.838731 -4.148703 47.984327 -7.933048 -19.071386 -14.640969 0.000000 0.000000 0.000000 2.769869 -1.796559 26.776013 14.204021 -2.413104 -26.793127 -4.133277 -6.618759 28.096441 -11.333516 7.776197 -15.334003 0.000000 0.000000 0.000000 -33.626471 -2.509331 -1.992893 -41.666997 -13.048544 -0.276626 -2.982477 -37.207542 2.388643 0.000000 0.000000 0.000000 0.000000 0.000000 0.000000 27.158650 8.053044 2.264413 40.403557 7.523750 -1.163244 -16.189349 47.413156 -5.285912 0.000000 0.000000 0.000000 0.000000 0.000000 0.000000 
-3.313585 132.227371 101.499954 -3.548702 5.635518 6.335145 9.174752 -0.186972 -6.985596 -9.188830 1.694195 14.312093 9.921381 20.302344 26.542377 0.000000 0.000000 0.000000 4.395652 4.753154 -34.146989 8.192817 -2.207410 38.022881 -7.095395 -15.999328 -14.850539 0.000000 0.000000 0.000000 3.088356 -1.802747 25.761706 12.778753 -1.881154 -28.325057 -3.284636 -6.029351 28.141806 -9.968946 7.064756 -13.605779 0.000000 0.000000 0.000000 -33.227078 -1.244082 -2.842477 -43.797621 -9.166432 -1.621443 -5.325110 -35.718113 3.033880 0.000000 0.000000 0.000000 0.000000 0.000000 0.000000 26.673291 5.389692 0.584860 40.789475 5.493911 -1.809709 -16.777629 48.767928 -5.728590 0.000000 0.000000 0.000000 0.000000 0.000000 0.000000 
-4.189197 135.637207 103.090500 -0.923946 5.904082 5.145784 10.166377 -0.154514 -13.617398 -15.327635 5.569018 35.736733 13.482387 24.943427 18.460721 0.000000 0.000000 0.000000 3.299413 3.475278 -27.119397 5.871552 -0.991710 28.853941 -5.750922 -12.091114 -11.093149 0.000000 0.000000 0.000000 0.066356 -1.099617 26.125729 13.457806 -1.777486 -29.987546 -2.510389 -4.875607 28.689519 -9.308171 6.591615 -15.287840 0.000000 0.000000 0.000000 -33.180297 0.844075 -4.297547 -44.462248 -5.919417 -2.790539 -9.261002 -34.677587 4.161673 0.000000 0.000000 0.000000 0.000000 0.000000 0.000000 26.350195 2.629640 -1.125850 41.057006 3.799526 -2.355457 -17.333897 52.763736 -6.578019 0.000000 0.000000 0.000000 0.000000 0.000000 0.000000 
-4.841514 138.139740 104.360489 0.822444 4.785149 3.789405 10.345830 -0.142437 -21.734638 -19.743508 11.037596 54.858533 16.960938 30.091416 14.104929 0.000000 0.000000 0.000000 3.874506 2.800290 -21.356332 2.259014 0.242873 23.606932 -4.389639 -8.814754 -7.679399 0.000000 0.000000 0.000000 -2.179751 -0.591769 27.566993 13.093871 -1.595982 -30.769759 -1.539323 -2.886442 28.753317 -8.981617 6.423283 -14.692685 0.000000 0.000000 0.000000 -34.852885 1.421604 -4.952869 -42.688161 -3.390180 -3.527533 -11.402862 -34.123460 4.747735 0.000000 0.000000 0.000000 0.000000 0.000000 0.000000 25.357378 2.163002 -1.326034 41.635281 2.466366 -2.815011 -20.301247 55.370790 -8.513487 0.000000 0.000000 0.000000 0.000000 0.000000 0.000000 
-5.223117 140.469116 105.415771 3.395323 6.009744 2.880476 10.864799 -0.015074 -30.617087 -23.224458 17.635288 70.716391 19.470332 35.104429 7.582321 0.000000 0.000000 0.000000 1.735051 1.892906 -16.688669 1.185450 0.466916 19.737318 -3.542933 -6.919619 -5.967539 0.000000 0.000000 0.000000 -3.578801 -0.261165 30.021784 12.077700 -1.129822 -32.868611 -1.297115 -1.863369 29.050856 -8.965388 6.427499 -14.338008 0.000000 0.000000 0.000000 -35.442430 1.460635 -5.071511 -41.249524 -2.878099 -3.569288 -12.541819 -33.469998 4.993852 0.000000 0.000000 0.000000 0.000000 0.000000 0.000000 24.075077 1.210147 -1.777646 42.707824 1.805216 -3.107554 -24.171373 57.929028 -11.132216 0.000000 0.000000 0.000000 0.000000 0.000000 0.000000 
-5.381203 141.905670 106.241394 5.438420 5.605625 2.454525 11.198858 0.145886 -40.845963 -24.802098 23.420488 83.077362 20.448309 36.511046 7.659234 0.000000 0.000000 0.000000 0.110278 1.397980 -13.828457 -0.172592 0.753186 17.417888 -2.664966 -5.145999 -4.155943 0.000000 0.000000 0.000000 -5.438814 0.257390 30.504915 12.026732 -1.035690 -33.518219 -1.108339 0.605539 29.780284 -7.801783 5.741373 -13.955969 0.000000 0.000000 0.000000 -36.140257 0.869795 -4.744914 -39.553515 -2.812173 -3.438976 -12.149896 -32.782951 4.768383 0.000000 0.000000 0.000000 0.000000 0.000000 0.000000 23.810225 0.590791 -2.117277 43.211839 0.714752 -3.510420 -25.641345 59.639167 -12.389594 0.000000 0.000000 0.000000 0.000000 0.000000 0.000000 
-5.459908 142.864136 106.977722 7.963830 6.692556 1.701327 11.623720 0.406669 -49.891091 -27.741417 28.593484 87.353991 21.768975 40.354685 2.315221 0.000000 0.000000 0.000000 -2.169740 0.924156 -10.778766 -0.724804 0.792458 15.221152 -2.280089 -5.073202 -1.813579 0.000000 0.000000 0.000000 -7.499212 0.869931 31.717985 11.451491 -0.864800 -34.147470 -0.905417 0.747436 30.475758 -7.921564 5.827564 -13.437538 0.000000 0.000000 0.000000 -36.908626 1.011540 -4.964843 -38.457034 -3.631519 -3.102334 -12.831002 -32.134887 4.864632 0.000000 0.000000 0.000000 0.000000 0.000000 0.000000 23.783193 0.259283 -2.310141 43.653224 0.478736 -3.628537 -28.025094 61.590041 -14.333560 0.000000 0.000000 0.000000 0.000000 0.000000 0.000000 
-5.517135 143.290222 107.689331 9.209915 6.808735 1.296288 12.506651 0.950495 -56.443855 -31.798599 32.235207 85.380744 21.343209 42.290958 -3.883165 0.000000 0.000000 0.000000 -3.814447 0.727678 -9.599090 -0.623516 0.775337 15.380681 -2.137669 -4.861748 -1.417253 0.000000 0.000000 0.000000 -9.327818 1.430236 32.264211 11.997373 -0.853619 -34.868732 -0.623758 1.627544 31.982296 -8.744903 6.281057 -14.739183 0.000000 0.000000 0.000000 -36.234831 1.254614 -5.042586 -38.871800 -4.900819 -2.758746 -12.917213 -32.027543 4.872142 0.000000 0.000000 0.000000 0.000000 0.000000 0.000000 23.608187 0.002470 -2.441654 43.447276 1.794062 -3.167580 -28.584192 61.560951 -14.660167 0.000000 0.000000 0.000000 0.000000 0.000000 0.000000 
-5.537007 143.750259 108.486786 10.571573 6.528445 1.972418 12.215873 0.932313 -63.024530 -33.512557 31.471005 80.375832 19.597213 40.960808 -7.986155 0.000000 0.000000 0.000000 -5.799357 0.577796 -9.015713 -0.657549 0.773733 15.171941 -1.809026 -4.218674 -0.913895 0.000000 0.000000 0.000000 -9.963568 1.631482 32.490654 11.462970 -0.849763 -34.280197 -0.646084 2.145842 32.650082 -8.145875 5.892046 -15.891950 0.000000 0.000000 0.000000 -36.260443 0.231990 -4.291729 -39.354919 -5.941975 -2.476971 -12.399742 -33.004515 4.877194 0.000000 0.000000 0.000000 0.000000 0.000000 0.000000 25.134990 -0.510630 -2.928670 43.252544 2.760811 -2.828538 -31.066920 63.926203 -16.954981 0.000000 0.000000 0.000000 0.000000 0.000000 0.000000 
-5.422688 143.801010 109.259796 11.599122 6.312747 1.841195 12.204692 1.008949 -66.941919 -34.733214 28.897849 72.762172 18.391521 37.808116 -6.137859 0.000000 0.000000 0.000000 -7.537066 0.471312 -8.736345 -0.209162 0.699582 15.972145 -1.397554 -3.056601 -1.129992 0.000000 0.000000 0.000000 -9.968599 1.688907 33.593729 10.697707 -0.723571 -34.365801 -0.277860 3.092160 33.002377 -8.149417 5.908512 -15.396917 0.000000 0.000000 0.000000 -36.762118 -1.158947 -3.323043 -39.506180 -5.864565 -2.509464 -11.634836 -34.693657 4.905772 0.000000 0.000000 0.000000 0.000000 0.000000 0.000000 26.804025 -0.224051 -2.955642 43.689109 1.964437 -3.128254 -33.439698 65.250656 -18.957441 0.000000 0.000000 0.000000 0.000000 0.000000 0.000000 
